<svg width="40" height="69" viewBox="0 0 40 69" fill="none" xmlns="http://www.w3.org/2000/svg">
<path d="M29.2736 3C24.7425 20.4274 24.1124 37.2355 23.0769 54.7582C23.0364 55.442 22.9386 60.5937 23.172 63.5512M23.172 63.5512C23.2764 64.8735 23.447 65.7572 23.7186 65.6068C23.9918 65.4554 24.2526 65.2991 24.5017 65.138M23.172 63.5512C23.6226 64.1311 24.0857 64.6967 24.5017 65.138M23.172 63.5512C22.2338 62.3434 21.3498 61.0737 21.0579 60.7361C16.9092 55.9374 10.0354 52.7472 3 49.1402M24.5017 65.138C25.3047 64.619 25.9872 64.0514 26.5776 63.4474M24.5017 65.138C25.2817 65.9653 25.8963 66.3555 25.9535 65.5837C25.999 64.97 26.2228 64.2455 26.5776 63.4474M26.5776 63.4474C28.13 61.8591 29.0451 60.0195 29.8362 58.1517M26.5776 63.4474C27.2769 61.8737 28.4849 60.0137 29.8362 58.1517M29.8362 58.1517C31.1964 54.9404 32.1904 51.6458 35.4275 49.402C39.8023 46.3696 34.1041 52.2709 29.8362 58.1517Z" stroke="white" stroke-width="5" stroke-linecap="round"/>
</svg>
