<svg width="981" height="344" viewBox="0 0 981 344" fill="none" xmlns="http://www.w3.org/2000/svg">
<path d="M319.732 96.2677C322.603 95.5917 324.624 99.0313 322.635 101.21L318.502 105.739C317.447 106.896 317.458 108.67 318.53 109.813L322.863 114.436C324.923 116.634 322.822 120.157 319.91 119.389L312.49 117.432C311.562 117.187 310.573 117.402 309.829 118.008L300.131 125.92C298.154 127.533 295.193 126.097 295.235 123.546L295.376 114.973C295.398 113.623 294.515 112.425 293.219 112.045L284.915 109.613C282.121 108.795 282.013 104.876 284.758 103.906L293.743 100.729C294.889 100.324 295.677 99.2679 295.74 98.0545L295.997 93.0519C296.133 90.4087 299.376 89.2238 301.184 91.1565L307.263 97.6549C307.997 98.4398 309.095 98.7719 310.141 98.5256L319.732 96.2677Z" fill="#FFCC00"/>
<g style="mix-blend-mode:soft-light" opacity="0.7">
<path d="M39.2897 195.811C42.2693 195.144 44.2244 198.835 41.9984 200.925L38.3873 204.315C37.5859 205.068 37.2601 206.198 37.5384 207.262L38.9952 212.83C39.6592 215.368 36.9755 217.475 34.6672 216.229L31.9288 214.75C30.8953 214.191 29.6312 214.288 28.6941 214.996L23.8335 218.67C21.4268 220.489 18.1421 218.017 19.2241 215.201L20.7345 211.27C21.2568 209.91 20.7274 208.372 19.4791 207.622L16.4451 205.799C14.2725 204.494 14.5972 201.25 16.9854 200.401L24.9114 197.584C25.7152 197.299 26.3593 196.684 26.6828 195.895L28.1451 192.326C29.2382 189.658 33.0978 189.918 33.8243 192.707L34.1585 193.991C34.5659 195.555 36.1396 196.516 37.717 196.163L39.2897 195.811Z" fill="#002266"/>
</g>
<g style="mix-blend-mode:soft-light" opacity="0.7">
<path d="M285.543 59.771C288.482 58.9862 290.588 62.57 288.472 64.7559L287.309 65.9578C286.172 67.1325 286.185 69.0012 287.338 70.1601L288.651 71.4808C290.744 73.5841 288.84 77.1241 285.931 76.5373L281.71 75.6857C280.846 75.5115 279.95 75.7258 279.258 76.2718L272.191 81.8511C270.157 83.4566 267.182 81.9028 267.337 79.3165L267.584 75.2215C267.671 73.7584 266.689 72.446 265.261 72.1177L261.702 71.2998C258.805 70.6341 258.536 66.6136 261.318 65.5678L266.596 63.5838C267.668 63.1812 268.416 62.2043 268.527 61.0653L268.79 58.3577C269.035 55.829 272.116 54.7309 273.905 56.5343L277.657 60.3159C278.414 61.0791 279.522 61.3787 280.561 61.1013L285.543 59.771Z" fill="#002266"/>
</g>
<g style="mix-blend-mode:soft-light" opacity="0.7">
<path d="M316.837 113.096C319.7 112.412 321.733 115.83 319.766 118.019L315.955 122.259C314.92 123.412 314.932 125.163 315.983 126.301L319.964 130.608C322.004 132.816 319.889 136.319 316.985 135.542L310.211 133.729C309.273 133.478 308.271 133.697 307.523 134.317L298.433 141.844C296.46 143.478 293.478 142.047 293.52 139.485L293.651 131.352C293.673 130.007 292.796 128.811 291.506 128.428L283.772 126.129C280.994 125.304 280.885 121.409 283.613 120.43L292.03 117.408C293.169 116.999 293.951 115.945 294.012 114.735L294.244 110.136C294.378 107.48 297.644 106.299 299.446 108.253L305.051 114.334C305.787 115.133 306.898 115.471 307.954 115.219L316.837 113.096Z" fill="#002266"/>
</g>
<g style="mix-blend-mode:soft-light" opacity="0.7">
<path d="M231.141 29.6925C233.941 28.8908 235.941 32.3775 233.836 34.3906C232.729 35.4498 232.683 37.2041 233.734 38.3196L233.847 38.4399C235.792 40.505 233.994 43.8585 231.198 43.3808L228.284 42.8832C227.47 42.7441 226.634 42.9469 225.974 43.4438L220.498 47.5671C218.349 49.1854 215.32 47.3748 215.728 44.7155L215.912 43.5172C216.156 41.9306 215.107 40.4335 213.533 40.12L213.126 40.0391C210.181 39.4526 209.829 35.3819 212.63 34.2988L216.083 32.9637C217.05 32.59 217.755 31.7438 217.948 30.7257L218.317 28.7859C218.775 26.3775 221.771 25.505 223.45 27.2913L225.606 29.5851C226.376 30.4036 227.538 30.7237 228.618 30.4146L231.141 29.6925Z" fill="#002266"/>
</g>
<g style="mix-blend-mode:soft-light" opacity="0.7">
<path d="M77.6376 245.753C80.516 245.173 82.4274 248.646 80.3975 250.768L74.1967 257.248C73.4602 258.018 73.1872 259.12 73.4793 260.145L75.9899 268.948C76.7449 271.595 73.834 273.777 71.5052 272.309L67.5239 269.799C66.4295 269.109 65.0162 269.199 64.0174 270.021L57.1064 275.71C54.8156 277.596 51.4698 275.367 52.3278 272.527L54.9034 264C55.2797 262.755 54.8102 261.409 53.741 260.667L47.8298 256.569C45.8171 255.173 46.2343 252.084 48.5452 251.273L58.5784 247.75C59.4604 247.44 60.1476 246.737 60.437 245.848L62.2256 240.356C63.1428 237.539 67.1533 237.615 67.9637 240.464L69.1518 244.641C69.5802 246.147 71.0947 247.07 72.6297 246.761L77.6376 245.753Z" fill="#002266"/>
</g>
<g style="mix-blend-mode:soft-light" opacity="0.7">
<path d="M39.7451 135.841C42.6415 135.092 44.6014 138.727 42.3841 140.735L40.511 142.432C39.6552 143.207 39.3203 144.405 39.6497 145.511L40.6783 148.967C41.4035 151.404 38.9589 153.582 36.6219 152.581L34.406 151.632C33.4258 151.212 32.2963 151.344 31.4394 151.979L27.9114 154.592C25.4701 156.4 22.1964 153.851 23.3509 151.041L23.8016 149.944C24.4047 148.476 23.7603 146.792 22.3313 146.102L21.2947 145.602C18.9208 144.455 19.0735 141.024 21.5398 140.093L27.8363 137.717C28.5925 137.431 29.2015 136.853 29.5254 136.112L30.6944 133.44C31.8028 130.907 35.4905 131.206 36.2756 133.857C36.7136 135.337 38.2516 136.227 39.7451 135.841Z" fill="#002266"/>
</g>
<g style="mix-blend-mode:soft-light" opacity="0.7">
<path d="M169.407 27.478C171.998 26.7016 173.856 29.9633 171.866 31.796C170.898 32.6877 170.768 34.1698 171.565 35.2167L171.731 35.4344C173.31 37.507 171.51 40.4369 168.948 39.9648L166.588 39.5302C165.769 39.3792 164.924 39.5758 164.255 40.0728L159.958 43.2666C157.835 44.845 154.907 42.8777 155.565 40.3152L155.598 40.1873C155.977 38.7148 155.056 37.2227 153.57 36.901C150.985 36.3416 150.687 32.7742 153.143 31.7934L156.937 30.2776C157.795 29.935 158.447 29.2162 158.705 28.3292L159.173 26.7216C159.861 24.3552 162.95 23.7818 164.442 25.7439L165.256 26.815C165.966 27.7492 167.181 28.145 168.305 27.8081L169.407 27.478Z" fill="#002266"/>
</g>
<g style="mix-blend-mode:soft-light" opacity="0.7">
<path d="M304.094 189.426C306.901 188.865 308.824 192.178 306.946 194.337L300.92 201.262C299.985 202.337 299.935 203.922 300.8 205.054L306.713 212.784C308.539 215.172 306.11 218.462 303.291 217.421L294.86 214.309C293.847 213.935 292.712 214.134 291.886 214.83L281.458 223.629C279.468 225.308 276.43 223.829 276.525 221.227L276.952 209.549C276.998 208.286 276.248 207.129 275.075 206.657L264.574 202.425C261.984 201.381 262.099 197.677 264.748 196.795L275.691 193.156C276.847 192.772 277.655 191.727 277.738 190.512L278.181 183.953C278.368 181.191 281.877 180.134 283.558 182.334L289.844 190.562C290.54 191.473 291.693 191.907 292.817 191.683L304.094 189.426Z" fill="#002266"/>
</g>
<g style="mix-blend-mode:soft-light" opacity="0.7">
<path d="M66.5338 84.2791C69.1411 83.4955 71.0272 86.7609 69.0457 88.6279L67.9133 89.6948C67.0447 90.5132 66.7553 91.7745 67.1803 92.8897L67.899 94.7755C68.8011 97.1425 66.545 99.4929 64.1431 98.6886L62.5075 98.1409C61.557 97.8226 60.5103 98.0001 59.7179 98.6138L56.8488 100.836C54.5756 102.597 51.4205 100.269 52.4322 97.5772C52.9844 96.108 52.239 94.4661 50.7728 93.9061C48.3407 92.9773 48.2744 89.5471 50.6793 88.5499L55.6258 86.4988C56.3696 86.1904 56.9582 85.5959 57.2592 84.849L58.1966 82.5228C59.1328 80.1999 62.433 80.2331 63.3222 82.5744L63.3791 82.7243C63.8598 83.99 65.2371 84.6688 66.5338 84.2791Z" fill="#002266"/>
</g>
<g style="mix-blend-mode:soft-light" opacity="0.7">
<path d="M152.199 274.479C155.034 274.001 156.853 277.4 154.882 279.494L147.17 287.685C146.363 288.542 146.132 289.792 146.58 290.881L150.938 301.487C152.025 304.133 149.143 306.655 146.664 305.226L139.996 301.38C138.92 300.759 137.573 300.866 136.608 301.649L126.819 309.589C124.613 311.378 121.387 309.385 122 306.612L124.671 294.515C124.944 293.278 124.41 292.002 123.337 291.328L114.493 285.775C112.327 284.415 112.746 281.143 115.185 280.373L127.153 276.594C128.152 276.279 128.913 275.466 129.163 274.45L131.009 266.942C131.703 264.122 135.598 263.834 136.699 266.521L139.84 274.19C140.372 275.488 141.732 276.244 143.115 276.011L152.199 274.479Z" fill="#002266"/>
</g>
<g style="mix-blend-mode:soft-light" opacity="0.7">
<path d="M113.845 48.2154C116.53 47.4141 118.421 50.8234 116.341 52.7003C115.424 53.5283 115.202 54.8854 115.813 55.96L116.154 56.5611C117.447 58.8362 115.41 61.5599 112.863 60.9641L110.904 60.506C110.048 60.3058 109.147 60.4912 108.44 61.0131L104.558 63.8765C102.425 65.4505 99.5516 63.2867 100.403 60.7759C100.892 59.3344 100.07 57.7624 98.6015 57.3629C96.1572 56.6982 95.9607 53.3067 98.3119 52.3641L102.82 50.5566C103.606 50.2415 104.222 49.609 104.517 48.8151L105.171 47.0517C106.058 44.6592 109.337 44.3963 110.594 46.6171L110.806 46.9916C111.41 48.0583 112.671 48.566 113.845 48.2154Z" fill="#002266"/>
</g>
<g style="mix-blend-mode:soft-light" opacity="0.7">
<path d="M241.58 252.151C244.373 251.663 246.222 254.964 244.346 257.091L236.799 265.647C235.948 266.612 235.807 268.012 236.448 269.127L242.429 279.532C243.901 282.092 241.178 285.014 238.521 283.727L230.143 279.671C229.078 279.155 227.809 279.314 226.904 280.076L216.138 289.14C214.062 290.888 210.916 289.2 211.225 286.503L212.767 273.067C212.908 271.836 212.278 270.646 211.182 270.069L200.35 264.375C197.992 263.136 198.298 259.669 200.835 258.861L213.133 254.945C214.23 254.596 215.031 253.649 215.193 252.509L216.313 244.638C216.715 241.812 220.464 241.092 221.885 243.567L227.109 252.671C227.737 253.766 228.984 254.35 230.227 254.133L241.58 252.151Z" fill="#002266"/>
</g>
<path d="M30.4174 182.524C33.3855 181.846 35.3589 185.51 33.1601 187.616L28.6864 191.9C27.9042 192.649 27.5864 193.761 27.855 194.81L29.5387 201.388C30.1906 203.935 27.4844 206.029 25.1828 204.759L21.9395 202.969C20.8929 202.391 19.6033 202.49 18.657 203.22L13.0501 207.547C10.6577 209.394 7.34497 206.944 8.40945 204.116L10.3119 199.061C10.8186 197.715 10.2983 196.198 9.07181 195.446L5.31019 193.141C3.16748 191.828 3.49244 188.62 5.85498 187.763L14.6924 184.558C15.4954 184.266 16.1362 183.647 16.4541 182.854L18.1851 178.536C19.2652 175.842 23.1604 176.099 23.8768 178.912L24.3835 180.901C24.7853 182.479 26.3716 183.448 27.9585 183.086L30.4174 182.524Z" fill="#FFCC00"/>
<path d="M287.615 40.0792C290.547 39.2867 292.665 42.8529 290.566 45.0483L288.779 46.9181C287.659 48.0892 287.672 49.9375 288.807 51.0933L290.725 53.0457C292.8 55.1581 290.885 58.6801 287.984 58.0871L283.016 57.0717C282.144 56.8934 281.237 57.1118 280.542 57.6678L272.885 63.789C270.856 65.4117 267.864 63.8623 268.017 61.2684L268.304 56.4272C268.39 54.9685 267.413 53.6598 265.99 53.3281L261.578 52.2996C258.693 51.6272 258.424 47.6257 261.193 46.5736L267.347 44.2348C268.414 43.8292 269.159 42.8528 269.268 41.7162L269.583 38.419C269.826 35.8799 272.926 34.7831 274.712 36.6044L278.878 40.8542C279.638 41.6287 280.756 41.933 281.803 41.65L287.615 40.0792Z" fill="#FFCC00"/>
<path d="M230.49 9.18397C233.477 8.3145 235.636 12.0221 233.406 14.191C232.243 15.3212 232.196 17.1723 233.298 18.3611L233.761 18.8607C235.712 20.966 233.877 24.3466 231.048 23.8561L227.54 23.2477C226.715 23.1047 225.868 23.3127 225.204 23.8214L219.11 28.4858C216.967 30.1258 213.918 28.3242 214.32 25.6561L214.611 23.7244C214.85 22.144 213.807 20.6542 212.241 20.3368L210.954 20.0761C208.025 19.4824 207.671 15.4372 210.453 14.3437L214.844 12.6182C215.806 12.2401 216.506 11.3934 216.695 10.3774L217.164 7.87237C217.617 5.44704 220.642 4.57557 222.316 6.38774L224.825 9.10299C225.597 9.93835 226.775 10.2654 227.867 9.94748L230.49 9.18397Z" fill="#FFCC00"/>
<path d="M69.4912 235.235C72.3851 234.668 74.2748 238.179 72.2076 240.282L65.2911 247.319C64.5285 248.095 64.2457 249.222 64.552 250.266L67.3496 259.801C68.1226 262.436 65.2436 264.639 62.9028 263.203L58.0319 260.217C56.9531 259.556 55.5753 259.642 54.5878 260.434L46.554 266.872C44.2452 268.722 40.9355 266.466 41.8129 263.641L44.7278 254.254C45.1204 252.99 44.6379 251.618 43.5404 250.877L37.0021 246.467C34.9475 245.081 35.3643 241.943 37.7094 241.141L48.7319 237.373C49.6162 237.071 50.3091 236.374 50.606 235.488L52.7565 229.071C53.6899 226.285 57.6562 226.363 58.4805 229.182L59.9821 234.319C60.4174 235.808 61.9161 236.719 63.4385 236.421L69.4912 235.235Z" fill="#FFCC00"/>
<path d="M29.4359 120.125C32.4124 119.355 34.4278 123.09 32.1499 125.155L30.1859 126.935C29.3311 127.71 28.9964 128.906 29.325 130.012L30.451 133.801C31.175 136.238 28.7303 138.415 26.3938 137.414L23.903 136.346C22.9222 135.926 21.7919 136.059 20.9348 136.694L17.0337 139.586C14.5934 141.396 11.3183 138.848 12.4715 136.038L13.0829 134.548C13.6851 133.08 13.0406 131.397 11.6119 130.707L10.2972 130.073C7.923 128.926 8.07609 125.495 10.543 124.564L17.2275 122.043C17.9844 121.757 18.5939 121.178 18.9178 120.437L20.1848 117.538C21.3055 114.973 25.0172 115.204 25.8107 117.889L25.8763 118.111C26.326 119.632 27.9003 120.523 29.4359 120.125Z" fill="#FFCC00"/>
<path d="M165.898 6.69097C168.594 5.89814 170.501 9.30232 168.417 11.1868C167.391 12.1144 167.254 13.6762 168.102 14.7685L168.273 14.9884C169.928 17.1189 168.083 20.168 165.428 19.6902L162.725 19.2039C161.919 19.0589 161.089 19.2496 160.427 19.7318L155.707 23.1706C153.486 24.7892 150.461 22.7255 151.158 20.0666L151.195 19.9248C151.598 18.3879 150.635 16.8262 149.081 16.4962C146.379 15.9224 146.072 12.1889 148.643 11.1814L152.686 9.59746C153.548 9.26003 154.205 8.54411 154.468 7.65724L155.075 5.6109C155.77 3.26731 158.826 2.69433 160.323 4.62692L161.425 6.04982C162.17 7.01104 163.427 7.41781 164.594 7.07474L165.898 6.69097Z" fill="#FFCC00"/>
<path d="M57.7723 66.3151C60.5055 65.5414 62.4 69.0001 60.2764 70.8868L59.3932 71.6714C58.4622 72.4985 58.1522 73.8219 58.619 74.9764L59.3559 76.7991C60.3067 79.1507 58.0913 81.5476 55.6723 80.7846L53.4628 80.0878C52.5531 79.8009 51.5613 79.9636 50.7911 80.5261L47.2779 83.0918C44.9396 84.7994 41.8272 82.3762 42.8989 79.6865C43.5006 78.1767 42.7331 76.4665 41.2042 75.9151C38.7059 75.0141 38.66 71.4976 41.1339 70.5318L46.3929 68.4785C47.1431 68.1856 47.744 67.6034 48.0605 66.863L49.0804 64.4767C50.1031 62.0837 53.5077 62.1195 54.48 64.5334L54.5637 64.7413C55.0742 66.0085 56.4578 66.6872 57.7723 66.3151Z" fill="#FFCC00"/>
<path d="M148.268 265.274C151.095 264.791 152.924 268.171 150.972 270.273L142.563 279.327C141.77 280.181 141.543 281.416 141.981 282.495L146.713 294.174C147.788 296.828 144.89 299.336 142.419 297.891L135.136 293.634C134.052 293 132.687 293.109 131.717 293.907L121.255 302.51C119.057 304.317 115.812 302.334 116.418 299.554L119.303 286.312C119.571 285.084 119.044 283.818 117.983 283.143L108.399 277.041C106.254 275.675 106.674 272.428 109.095 271.653L121.919 267.549C122.915 267.23 123.673 266.415 123.92 265.399L125.94 257.069C126.628 254.236 130.544 253.949 131.637 256.652L135.066 265.136C135.594 266.444 136.962 267.207 138.353 266.969L148.268 265.274Z" fill="#FFCC00"/>
<path d="M107.16 28.4887C109.955 27.6714 112.025 31.1867 109.842 33.1146C108.868 33.9742 108.636 35.4011 109.288 36.5246L109.756 37.3318C111.071 39.6007 109.047 42.3463 106.49 41.7606L103.969 41.1829C103.127 40.9902 102.244 41.1691 101.544 41.674L97.2292 44.7858C94.9974 46.3953 92.0395 44.1195 92.9414 41.5198C93.4633 40.0154 92.6038 38.3652 91.0651 37.9553C88.5088 37.2743 88.3068 33.7243 90.7695 32.7579L95.5825 30.8691C96.3707 30.5598 96.9915 29.9318 97.2917 29.1401L98.1385 26.907C99.035 24.5427 102.275 24.28 103.541 26.469L103.98 27.2286C104.616 28.3282 105.941 28.8451 107.16 28.4887Z" fill="#FFCC00"/>
<path d="M240.647 240.923C243.432 240.429 245.291 243.71 243.435 245.845L235.239 255.276C234.406 256.236 234.267 257.617 234.893 258.723L241.387 270.189C242.842 272.758 240.102 275.662 237.453 274.36L228.39 269.904C227.314 269.375 226.027 269.538 225.117 270.316L213.732 280.053C211.663 281.823 208.496 280.142 208.801 277.436L210.447 262.861C210.585 261.639 209.963 260.457 208.879 259.878L197.233 253.66C194.898 252.413 195.205 248.973 197.724 248.159L210.884 243.906C211.977 243.552 212.773 242.605 212.932 241.466L214.147 232.77C214.544 229.929 218.319 229.212 219.73 231.709L225.325 241.607C225.951 242.715 227.208 243.307 228.46 243.085L240.647 240.923Z" fill="#FFCC00"/>
<g filter="url(#filter0_d_19_846)">
<path d="M257.688 72.7225V14.6853H273.488V24.9024C276.647 17.8452 282.125 13 290.34 13C299.399 13 305.192 17.7399 306.877 26.1663C309.932 18.4772 315.514 13 324.257 13C335.211 13 341.426 19.8465 341.426 31.8542V72.7225H325.626V37.0154C325.626 29.6422 324.678 24.6917 318.148 24.6917C310.564 24.6917 308.036 33.7501 307.404 43.8619V72.7225H291.604V37.0154C291.604 29.6422 290.762 24.6917 284.231 24.6917C276.542 24.6917 274.12 33.7501 273.488 43.8619V72.7225H257.688Z" fill="#EFF6FF"/>
<path d="M378.144 74.4077C358.658 74.4077 349.389 59.3455 349.389 43.7565C349.389 27.9569 358.658 13 378.144 13C397.63 13 406.899 27.9569 406.899 43.7565C406.899 59.3455 397.63 74.4077 378.144 74.4077ZM378.144 63.1374C387.097 63.1374 391.1 53.447 391.1 43.7565C391.1 33.8555 387.097 24.2704 378.144 24.2704C369.086 24.2704 365.189 33.8555 365.189 43.7565C365.189 53.447 369.086 63.1374 378.144 63.1374Z" fill="#EFF6FF"/>
<path d="M415.992 72.7225V14.6853H431.792V22.2691C436.216 16.4759 443.062 13 451.594 13C464.023 13 471.08 20.8998 471.08 33.6448V72.7225H455.281V37.0154C455.281 29.6422 454.227 24.6917 445.485 24.6917C436.848 24.6917 432.003 29.6422 431.792 37.858V72.7225H415.992Z" fill="#EFF6FF"/>
</g>
<g filter="url(#filter1_d_19_846)">
<path d="M167.1 227.8C111.3 227.8 84.8999 184.9 84.8999 140.5C84.8999 95.5 111.3 52.9 172.8 52.9C206.4 52.9 239.7 74.8 239.7 107.5C239.7 132.4 219.3 159.1 161.1 166.9L134.4 170.8C140.1 187.3 151.5 199.6 170.7 199.6C188.1 199.6 201.3 193 204.6 180.7H243.9C236.1 206.2 212.4 227.8 167.1 227.8ZM129.9 140.5L130.2 149.8L159.9 141.4C178.5 136 194.7 124.3 194.7 109.6C194.7 94.9 185.1 85 166.8 85C141 85 129.9 110.5 129.9 140.5Z" fill="#EFF6FF"/>
<path d="M377.465 96.821V223H343.115V206.512C333.497 219.107 318.612 226.664 300.063 226.664C273.041 226.664 257.698 209.489 257.698 181.78V96.821H292.048V174.452C292.048 190.482 294.338 201.245 313.345 201.245C332.123 201.245 342.657 190.482 343.115 172.62V96.821H377.465Z" fill="#EFF6FF"/>
<path d="M402.224 223V96.821H436.574V112.851C445.734 100.485 459.703 93.157 475.962 93.157C480.084 93.157 483.977 93.386 487.412 93.844L487.183 121.782C486.267 121.553 478.71 121.553 469.779 121.553C453.062 121.553 437.032 134.606 436.574 152.468V223H402.224Z" fill="#EFF6FF"/>
<path d="M550.517 226.664C508.152 226.664 488 193.917 488 160.025C488 125.675 508.152 93.157 550.517 93.157C592.882 93.157 613.034 125.675 613.034 160.025C613.034 193.917 592.882 226.664 550.517 226.664ZM550.517 202.161C569.982 202.161 578.684 181.093 578.684 160.025C578.684 138.499 569.982 117.66 550.517 117.66C530.823 117.66 522.35 138.499 522.35 160.025C522.35 181.093 530.823 202.161 550.517 202.161Z" fill="#EFF6FF"/>
<path d="M628 274.754V96.821H662.35V109.416C671.968 99.34 684.792 93.157 696.929 93.157C734.714 93.157 754.866 125.675 754.866 160.025C754.866 193.917 734.714 226.664 700.364 226.664C683.876 226.664 670.594 218.42 662.35 208.115V274.754H628ZM662.35 187.963C666.93 198.039 677.235 205.138 691.891 205.138C711.814 205.138 720.516 182.467 720.516 160.025C720.516 137.125 711.814 114.683 692.349 114.683C674.945 114.683 664.182 127.507 662.35 143.766V187.963Z" fill="#EFF6FF"/>
<path d="M832.246 226.664C789.652 226.664 769.5 193.917 769.5 160.025C769.5 125.675 789.652 93.157 836.597 93.157C862.245 93.157 887.664 109.874 887.664 134.835C887.664 153.842 872.092 174.223 827.666 180.177L807.285 183.154C811.636 195.749 820.338 205.138 834.994 205.138C848.276 205.138 858.352 200.1 860.871 190.711H890.87C884.916 210.176 866.825 226.664 832.246 226.664ZM803.85 160.025L804.079 167.124L826.75 160.712C840.948 156.59 853.314 147.659 853.314 136.438C853.314 125.217 845.986 117.66 832.017 117.66C812.323 117.66 803.85 137.125 803.85 160.025Z" fill="#EFF6FF"/>
</g>
<g filter="url(#filter2_d_19_846)">
<path d="M712.117 263.79C714.741 260.347 717.036 256.74 719.003 252.97C720.971 249.199 721.955 245.715 721.955 242.518C721.955 239.566 720.807 237.517 718.512 236.369C716.216 235.14 713.429 234.525 710.15 234.525C707.937 234.525 705.6 234.73 703.141 235.14C700.682 235.549 698.386 236.123 696.255 236.861L692.566 218.785C696.993 217.392 701.378 216.326 705.723 215.588C710.068 214.85 714.167 214.481 718.02 214.481C723.594 214.481 728.513 215.301 732.776 216.941C737.12 218.58 740.522 221.204 742.982 224.811C745.441 228.336 746.671 233.008 746.671 238.829C746.671 243.829 745.605 248.707 743.473 253.461C741.342 258.134 738.596 262.643 735.235 266.988L721.955 284.326H748.269V304H693.304V288.506L712.117 263.79ZM790.903 214.481C802.544 214.481 810.947 218.006 816.111 225.056C821.276 232.106 823.858 243.501 823.858 259.241C823.858 274.98 821.276 286.58 816.111 294.04C810.947 301.5 802.544 305.23 790.903 305.23C779.263 305.23 770.86 301.5 765.696 294.04C760.613 286.58 758.072 274.98 758.072 259.241C758.072 243.501 760.613 232.106 765.696 225.056C770.86 218.006 779.263 214.481 790.903 214.481ZM790.903 286.17C793.445 286.17 795.248 283.957 796.314 279.53C797.462 275.021 798.035 268.258 798.035 259.241C798.035 250.223 797.462 243.706 796.314 239.689C795.248 235.59 793.445 233.541 790.903 233.541C788.362 233.541 786.518 235.59 785.37 239.689C784.304 243.706 783.771 250.223 783.771 259.241C783.771 268.258 784.304 275.021 785.37 279.53C786.518 283.957 788.362 286.17 790.903 286.17ZM853.095 263.79C855.718 260.347 858.013 256.74 859.981 252.97C861.948 249.199 862.932 245.715 862.932 242.518C862.932 239.566 861.784 237.517 859.489 236.369C857.194 235.14 854.406 234.525 851.127 234.525C848.914 234.525 846.578 234.73 844.118 235.14C841.659 235.549 839.364 236.123 837.232 236.861L833.543 218.785C837.97 217.392 842.356 216.326 846.701 215.588C851.045 214.85 855.144 214.481 858.997 214.481C864.572 214.481 869.49 215.301 873.753 216.941C878.098 218.58 881.5 221.204 883.959 224.811C886.418 228.336 887.648 233.008 887.648 238.829C887.648 243.829 886.582 248.707 884.451 253.461C882.32 258.134 879.573 262.643 876.212 266.988L862.932 284.326H889.247V304H834.281V288.506L853.095 263.79ZM953.154 216.449V268.955H964.344L960.778 287.646H953.154V304H930.036V287.769H895.36V269.939L924.38 214.727L953.154 216.449ZM930.036 268.955V240.673L914.789 268.955H930.036Z" fill="#FFCC00"/>
</g>
<path d="M307.092 176.877C309.897 176.314 311.823 179.623 309.949 181.784L303.421 189.309C302.49 190.384 302.44 191.964 303.303 193.095L309.728 201.516C311.551 203.905 309.121 207.192 306.303 206.15L297.148 202.764C296.133 202.389 294.995 202.589 294.169 203.288L283.148 212.614C281.159 214.297 278.117 212.819 278.212 210.215L278.666 197.758C278.711 196.496 277.962 195.34 276.791 194.867L265.55 190.325C262.964 189.28 263.079 185.58 265.725 184.698L277.429 180.794C278.584 180.409 279.391 179.364 279.473 178.149L279.955 170.976C280.14 168.211 283.655 167.154 285.334 169.359L292.051 178.176C292.747 179.089 293.903 179.525 295.028 179.299L307.092 176.877Z" fill="#FFCC00"/>
<defs>
<filter id="filter0_d_19_846" x="247.688" y="3" width="261.392" height="109.408" filterUnits="userSpaceOnUse" color-interpolation-filters="sRGB">
<feFlood flood-opacity="0" result="BackgroundImageFix"/>
<feColorMatrix in="SourceAlpha" type="matrix" values="0 0 0 0 0 0 0 0 0 0 0 0 0 0 0 0 0 0 127 0" result="hardAlpha"/>
<feOffset dx="14" dy="14"/>
<feGaussianBlur stdDeviation="12"/>
<feComposite in2="hardAlpha" operator="out"/>
<feColorMatrix type="matrix" values="0 0 0 0 0.0627451 0 0 0 0 0.0941176 0 0 0 0 0.156863 0 0 0 0.2 0"/>
<feBlend mode="normal" in2="BackgroundImageFix" result="effect1_dropShadow_19_846"/>
<feBlend mode="normal" in="SourceGraphic" in2="effect1_dropShadow_19_846" result="shape"/>
</filter>
<filter id="filter1_d_19_846" x="74.8999" y="42.9" width="853.97" height="269.854" filterUnits="userSpaceOnUse" color-interpolation-filters="sRGB">
<feFlood flood-opacity="0" result="BackgroundImageFix"/>
<feColorMatrix in="SourceAlpha" type="matrix" values="0 0 0 0 0 0 0 0 0 0 0 0 0 0 0 0 0 0 127 0" result="hardAlpha"/>
<feOffset dx="14" dy="14"/>
<feGaussianBlur stdDeviation="12"/>
<feComposite in2="hardAlpha" operator="out"/>
<feColorMatrix type="matrix" values="0 0 0 0 0.0627451 0 0 0 0 0.0941176 0 0 0 0 0.156863 0 0 0 0.2 0"/>
<feBlend mode="normal" in2="BackgroundImageFix" result="effect1_dropShadow_19_846"/>
<feBlend mode="normal" in="SourceGraphic" in2="effect1_dropShadow_19_846" result="shape"/>
</filter>
<filter id="filter2_d_19_846" x="682.566" y="204.481" width="319.778" height="138.748" filterUnits="userSpaceOnUse" color-interpolation-filters="sRGB">
<feFlood flood-opacity="0" result="BackgroundImageFix"/>
<feColorMatrix in="SourceAlpha" type="matrix" values="0 0 0 0 0 0 0 0 0 0 0 0 0 0 0 0 0 0 127 0" result="hardAlpha"/>
<feOffset dx="14" dy="14"/>
<feGaussianBlur stdDeviation="12"/>
<feComposite in2="hardAlpha" operator="out"/>
<feColorMatrix type="matrix" values="0 0 0 0 0.0627451 0 0 0 0 0.0941176 0 0 0 0 0.156863 0 0 0 0.2 0"/>
<feBlend mode="normal" in2="BackgroundImageFix" result="effect1_dropShadow_19_846"/>
<feBlend mode="normal" in="SourceGraphic" in2="effect1_dropShadow_19_846" result="shape"/>
</filter>
</defs>
</svg>
