<svg width="17" height="16" viewBox="0 0 17 16" fill="none" xmlns="http://www.w3.org/2000/svg">
<path d="M12.5 5.33331C13.6046 5.33331 14.5 4.43788 14.5 3.33331C14.5 2.22874 13.6046 1.33331 12.5 1.33331C11.3954 1.33331 10.5 2.22874 10.5 3.33331C10.5 4.43788 11.3954 5.33331 12.5 5.33331Z" stroke="white" stroke-width="1.33333" stroke-linecap="round" stroke-linejoin="round"/>
<path d="M4.5 10C5.60457 10 6.5 9.10457 6.5 8C6.5 6.89543 5.60457 6 4.5 6C3.39543 6 2.5 6.89543 2.5 8C2.5 9.10457 3.39543 10 4.5 10Z" stroke="white" stroke-width="1.33333" stroke-linecap="round" stroke-linejoin="round"/>
<path d="M12.5 14.6667C13.6046 14.6667 14.5 13.7713 14.5 12.6667C14.5 11.5621 13.6046 10.6667 12.5 10.6667C11.3954 10.6667 10.5 11.5621 10.5 12.6667C10.5 13.7713 11.3954 14.6667 12.5 14.6667Z" stroke="white" stroke-width="1.33333" stroke-linecap="round" stroke-linejoin="round"/>
<path d="M6.22656 9.00665L10.7799 11.66" stroke="white" stroke-width="1.33333" stroke-linecap="round" stroke-linejoin="round"/>
<path d="M10.7732 4.34003L6.22656 6.99336" stroke="white" stroke-width="1.33333" stroke-linecap="round" stroke-linejoin="round"/>
</svg>
